<svg width="55" height="68" viewBox="0 0 55 68" fill="none" xmlns="http://www.w3.org/2000/svg">
<path d="M8.55416 48.4278V53.2119H6.03613V41.5322H10.5151C12.0021 41.5322 12.7456 42.327 12.7456 43.9164V45.2685C12.7456 46.2299 12.4042 46.8436 11.7214 47.1095C12.3204 47.3259 12.6199 47.8186 12.6199 48.5878V53.2097H10.1018V48.7996C10.1018 48.5585 9.98727 48.4368 9.7604 48.4368L8.55416 48.4278ZM8.55416 43.2449V46.6589H9.88619C9.93204 46.6597 9.97751 46.6504 10.0194 46.6317C10.0613 46.613 10.0986 46.5854 10.1288 46.5507C10.193 46.4825 10.2284 46.3921 10.2276 46.2983V43.6167C10.2284 43.5229 10.193 43.4324 10.1288 43.3643C10.0988 43.3293 10.0615 43.3013 10.0196 43.2822C9.97773 43.2632 9.93219 43.2535 9.88619 43.2539L8.55416 43.2449Z" fill="#364052"/>
<path d="M18.6846 51.1184H21.4722V53.2119H16.1643V41.5322H21.4722V43.5919H18.6846V46.3344H21.2835V48.3197H18.6846V51.1184Z" fill="#364052"/>
<path d="M24.0645 43.682V41.5322H30.3539V43.682H28.4716V53.2119H25.9535V43.682H24.0645Z" fill="#364052"/>
<path d="M35.83 48.4278V53.2119H33.312V41.5322H37.8045C39.2915 41.5322 40.035 42.327 40.035 43.9164V45.2685C40.035 46.2299 39.6928 46.8436 39.0085 47.1095C39.6075 47.3259 39.907 47.8186 39.907 48.5878V53.2097H37.3777V48.7996C37.3777 48.5585 37.2631 48.4368 37.0363 48.4368L35.83 48.4278ZM35.83 43.2449V46.6589H37.1621C37.2079 46.6597 37.2534 46.6504 37.2953 46.6317C37.3372 46.613 37.3745 46.5854 37.4047 46.5507C37.4369 46.5172 37.4622 46.4777 37.4791 46.4344C37.4961 46.3911 37.5044 46.3448 37.5035 46.2983V43.6167C37.5044 43.5702 37.4961 43.5239 37.4791 43.4806C37.4622 43.4373 37.4369 43.3978 37.4047 43.3643C37.3746 43.3293 37.3374 43.3013 37.2955 43.2822C37.2536 43.2632 37.2081 43.2535 37.1621 43.2539L35.83 43.2449Z" fill="#364052"/>
<path d="M50.2981 43.7362V51.0104C50.2981 52.5998 49.5539 53.3938 48.0654 53.3923H45.6731C44.1861 53.3923 43.4426 52.5983 43.4426 51.0104V43.7362C43.4426 42.1483 44.1861 41.3536 45.6731 41.3521H48.0654C49.5524 41.3596 50.2966 42.1543 50.2981 43.7362ZM47.7891 51.2988V43.4297C47.7901 43.3359 47.7547 43.2454 47.6903 43.1773C47.6605 43.142 47.6234 43.1138 47.5814 43.0947C47.5394 43.0756 47.4937 43.0661 47.4477 43.0669H46.3245C46.2785 43.0662 46.2329 43.0758 46.1909 43.0949C46.149 43.114 46.1118 43.1421 46.082 43.1773C46.0175 43.2454 45.9821 43.3359 45.9831 43.4297V51.2988C45.9823 51.3926 46.0177 51.4831 46.082 51.5512C46.1122 51.5858 46.1495 51.6133 46.1914 51.632C46.2333 51.6507 46.2787 51.66 46.3245 51.6594H47.4477C47.4935 51.6602 47.539 51.6509 47.5809 51.6322C47.6228 51.6136 47.6601 51.5859 47.6903 51.5512C47.7545 51.4831 47.7899 51.3926 47.7891 51.2988Z" fill="#364052"/>
<path d="M10.9934 62.7103V60.8512H14.3785V65.1486C14.3785 66.735 13.6222 67.529 12.1098 67.5305H9.80288C8.29191 67.5305 7.53568 66.7365 7.53418 65.1486V57.8721C7.53418 56.2857 8.29041 55.4917 9.80288 55.4902H12.1098C13.6207 55.4902 14.377 56.2842 14.3785 57.8721V58.9741H11.9435V57.5657C11.9439 57.472 11.9085 57.3817 11.8447 57.3133C11.8135 57.2787 11.7754 57.2512 11.7328 57.2326C11.6902 57.2139 11.6441 57.2046 11.5976 57.2051H10.4431C10.3966 57.2046 10.3505 57.2139 10.3079 57.2326C10.2653 57.2512 10.2272 57.2787 10.196 57.3133C10.1313 57.3812 10.0959 57.4718 10.0971 57.5657V65.437C10.0963 65.4835 10.1045 65.5298 10.1215 65.5731C10.1385 65.6164 10.1638 65.6559 10.196 65.6894C10.2272 65.724 10.2653 65.7515 10.3079 65.7701C10.3505 65.7888 10.3966 65.7981 10.4431 65.7976H11.5976C11.644 65.8002 11.6904 65.7929 11.7338 65.7762C11.7772 65.7595 11.8165 65.7338 11.8492 65.7007C11.9134 65.6325 11.9488 65.5421 11.948 65.4483V62.7216L10.9934 62.7103Z" fill="#364052"/>
<path d="M22.3213 55.4902C23.8338 55.4902 24.59 56.2842 24.59 57.8721V67.3502H22.027V63.4337H20.1784V67.3502H17.6177V57.8721C17.6177 56.2857 18.3739 55.4917 19.8864 55.4902H22.3213ZM20.1784 61.4844H22.027V57.5657C22.0275 57.4715 21.9912 57.381 21.926 57.3133C21.895 57.2785 21.8568 57.2508 21.8142 57.2321C21.7715 57.2135 21.7254 57.2043 21.6789 57.2051H20.5266C20.4801 57.2046 20.434 57.2139 20.3914 57.2326C20.3488 57.2512 20.3107 57.2787 20.2795 57.3133C20.2142 57.381 20.1779 57.4715 20.1784 57.5657V61.4844Z" fill="#364052"/>
<path d="M30.8659 67.3502H28.303V57.8721C28.303 56.2857 29.06 55.4917 30.5739 55.4902H31.9217C32.8202 55.4902 33.4551 55.7794 33.8265 56.3578C34.1784 55.7794 34.8126 55.4902 35.729 55.4902H37.0768C38.5892 55.4902 39.3455 56.2842 39.3455 57.8721V67.3502H36.7848V57.6603C36.7852 57.5662 36.7489 57.4756 36.6837 57.4079C36.6525 57.3734 36.6143 57.3458 36.5717 57.3272C36.5291 57.3085 36.4831 57.2992 36.4366 57.2998H35.4483C35.4017 57.2989 35.3556 57.3081 35.3129 57.3268C35.2703 57.3455 35.2322 57.3731 35.2012 57.4079C35.1359 57.4756 35.0997 57.5662 35.1001 57.6603V67.3502H32.5394V57.6603C32.5389 57.5664 32.5027 57.4761 32.4383 57.4079C32.4071 57.3734 32.369 57.3458 32.3264 57.3272C32.2838 57.3085 32.2377 57.2992 32.1912 57.2998H31.2029C31.1563 57.2989 31.1102 57.3081 31.0676 57.3268C31.0249 57.3455 30.9868 57.3731 30.9558 57.4079C30.8905 57.4756 30.8543 57.5662 30.8547 57.6603L30.8659 67.3502Z" fill="#364052"/>
<path d="M45.5047 65.2499H48.3417V67.3433H42.9507V55.6704H48.3417V57.7278H45.5047V60.4725H48.1597V62.4578H45.5047V65.2499Z" fill="#364052"/>
<path d="M27.5 10.148C27.5 10.148 28.0615 3.19659 32.4898 1" stroke="#364052" stroke-width="1.5" stroke-miterlimit="10"/>
<path d="M54 10.4009H1V35.847H54V10.4009Z" fill="#364052" stroke="#DCDFDF" stroke-miterlimit="10"/>
<path d="M24.7451 17.4747V12.0371H2.63086V34.2112H52.3693V17.4071L24.7451 17.4747Z" stroke="#DCDFDF" stroke-miterlimit="10"/>
<path d="M19.6707 21.3079H16.1352C16.0023 21.3079 15.8749 21.255 15.781 21.1607C15.687 21.0665 15.6342 20.9387 15.6342 20.8054V17.2652C15.6342 17.1319 15.5815 17.0041 15.4875 16.9099C15.3936 16.8156 15.2662 16.7627 15.1333 16.7627H12.2289C12.0961 16.7627 11.9687 16.8156 11.8747 16.9099C11.7808 17.0041 11.728 17.1319 11.728 17.2652V20.8122C11.728 20.9454 11.6753 21.0733 11.5813 21.1675C11.4874 21.2618 11.36 21.3147 11.2271 21.3147H7.69154C7.62587 21.3147 7.56084 21.3277 7.50019 21.353C7.43954 21.3783 7.38447 21.4153 7.33814 21.462C7.29181 21.5087 7.25512 21.5641 7.23019 21.6251C7.20526 21.686 7.19258 21.7513 7.19288 21.8172V24.7309C7.19258 24.7968 7.20526 24.8621 7.23019 24.9231C7.25512 24.984 7.29181 25.0394 7.33814 25.0861C7.38447 25.1328 7.43954 25.1699 7.50019 25.1952C7.56084 25.2204 7.62587 25.2335 7.69154 25.2335H11.2271C11.2928 25.2332 11.3579 25.2459 11.4186 25.2709C11.4794 25.2959 11.5346 25.3327 11.5812 25.3792C11.6277 25.4257 11.6647 25.4809 11.6899 25.5418C11.7151 25.6026 11.728 25.6678 11.728 25.7337V29.2829C11.728 29.3488 11.741 29.4141 11.7662 29.4749C11.7914 29.5357 11.8283 29.591 11.8749 29.6375C11.9214 29.684 11.9767 29.7208 12.0374 29.7458C12.0982 29.7708 12.1633 29.7835 12.2289 29.7832H15.1333C15.199 29.7835 15.2641 29.7708 15.3249 29.7458C15.3856 29.7208 15.4409 29.684 15.4874 29.6375C15.5339 29.591 15.5709 29.5357 15.5961 29.4749C15.6213 29.4141 15.6342 29.3488 15.6342 29.2829V25.7337C15.6342 25.6678 15.6472 25.6026 15.6724 25.5418C15.6976 25.4809 15.7345 25.4257 15.7811 25.3792C15.8276 25.3327 15.8829 25.2959 15.9436 25.2709C16.0044 25.2459 16.0695 25.2332 16.1352 25.2335H19.6707C19.8036 25.2335 19.931 25.1805 20.0249 25.0863C20.1189 24.992 20.1716 24.8642 20.1716 24.7309V21.8172C20.1725 21.7507 20.1602 21.6846 20.1355 21.6228C20.1107 21.5611 20.0739 21.5049 20.0273 21.4575C19.9807 21.4101 19.9252 21.3725 19.864 21.3468C19.8028 21.3211 19.7371 21.3079 19.6707 21.3079Z" fill="#DCDFDF"/>
<path d="M42.077 27.5678C42.077 26.261 41.021 25.2017 39.7184 25.2017C38.4158 25.2017 37.3599 26.261 37.3599 27.5678C37.3599 28.8746 38.4158 29.9339 39.7184 29.9339C41.021 29.9339 42.077 28.8746 42.077 27.5678Z" fill="#6AAE9D"/>
<path d="M48.5911 27.5678C48.5911 26.261 47.5352 25.2017 46.2326 25.2017C44.93 25.2017 43.874 26.261 43.874 27.5678C43.874 28.8746 44.93 29.9339 46.2326 29.9339C47.5352 29.9339 48.5911 28.8746 48.5911 27.5678Z" fill="#E9C247"/>
<path d="M27.0273 27.0044H24.5564C24.3083 27.0044 24.1072 27.2062 24.1072 27.4551C24.1072 27.704 24.3083 27.9058 24.5564 27.9058H27.0273C27.2754 27.9058 27.4765 27.704 27.4765 27.4551C27.4765 27.2062 27.2754 27.0044 27.0273 27.0044Z" fill="#DCDFDF"/>
<path d="M31.9689 27.0044H29.4981C29.25 27.0044 29.0488 27.2062 29.0488 27.4551C29.0488 27.704 29.25 27.9058 29.4981 27.9058H31.9689C32.217 27.9058 32.4182 27.704 32.4182 27.4551C32.4182 27.2062 32.217 27.0044 31.9689 27.0044Z" fill="#DCDFDF"/>
<path d="M51.2851 12.6431H36.46C36.3979 12.6431 36.3477 12.6935 36.3477 12.7557C36.3477 12.818 36.3979 12.8684 36.46 12.8684H51.2851C51.3472 12.8684 51.3975 12.818 51.3975 12.7557C51.3975 12.6935 51.3472 12.6431 51.2851 12.6431Z" fill="#F2F5F9"/>
<path d="M35.3369 12.6431H35.1123C35.0503 12.6431 35 12.6935 35 12.7557C35 12.818 35.0503 12.8684 35.1123 12.8684H35.3369C35.399 12.8684 35.4492 12.818 35.4492 12.7557C35.4492 12.6935 35.399 12.6431 35.3369 12.6431Z" fill="#F2F5F9"/>
</svg>
