<?xml version="1.0"?>
<svg xmlns="http://www.w3.org/2000/svg" xmlns:xlink="http://www.w3.org/1999/xlink" xmlns:svgjs="http://svgjs.com/svgjs" version="1.1" width="512" height="512" x="0" y="0" viewBox="0 0 64 64" style="enable-background:new 0 0 512 512" xml:space="preserve" class=""><g><path xmlns="http://www.w3.org/2000/svg" d="m31.414 15.586-7-7c-.78-.781-2.048-.781-2.828 0l-7 7c-.781.781-.781 2.047 0 2.828.78.781 2.048.781 2.828 0l3.586-3.586v39.172c0 1.104.896 2 2 2s2-.896 2-2v-39.172l3.586 3.586c.39.391.902.586 1.414.586s1.024-.195 1.414-.586c.781-.781.781-2.047 0-2.828z" fill="#5e6572" data-original="#000000" style="" class=""/><path xmlns="http://www.w3.org/2000/svg" d="m49.414 45.586c-.781-.781-2.047-.781-2.828 0l-3.586 3.586v-39.172c0-1.104-.896-2-2-2s-2 .896-2 2v39.172l-3.586-3.586c-.781-.781-2.048-.781-2.828 0-.781.781-.781 2.047 0 2.828l7 7c.391.391.902.586 1.414.586s1.023-.195 1.414-.586l7-7c.781-.781.781-2.047 0-2.828z" fill="#5e6572" data-original="#000000" style="" class=""/></g></svg>
